<svg width="298" height="273" viewBox="0 0 298 273" fill="none" xmlns="http://www.w3.org/2000/svg">
<path fill-rule="evenodd" clip-rule="evenodd" d="M243.764 22.5924C245.786 20.2192 247.154 17.3108 246.925 14.0519C246.266 4.66204 233.195 6.72769 230.653 11.4669C228.11 16.2061 228.412 28.2274 231.698 29.0744C233.009 29.4122 235.801 28.5848 238.642 26.8722L236.859 39.4893H247.389L243.764 22.5924Z" fill="#B28B67"/>
<path fill-rule="evenodd" clip-rule="evenodd" d="M225.988 4.89699C226.206 4.13049 226.792 3.47421 227.583 3.2795C227.774 3.23228 227.972 3.2132 228.17 3.22115C228.24 3.22398 228.26 3.24438 228.293 3.1949C228.318 3.15822 228.318 3.06861 228.328 3.0255C228.36 2.89146 228.399 2.75908 228.448 2.63014C228.613 2.19034 228.891 1.80111 229.226 1.47322C229.853 0.859814 230.7 0.436468 231.579 0.359879C232.061 0.317982 232.539 0.396214 232.994 0.552851C233.23 0.633936 233.458 0.734903 233.681 0.846531C233.748 0.880129 233.965 1.04469 234.033 1.03403C234.107 1.02227 234.256 0.837685 234.316 0.791351C235.063 0.2186 235.985 -0.00658753 236.915 0.000146285C237.964 0.00805037 238.975 0.0604936 239.85 0.700296C240.035 0.835754 240.212 0.984064 240.38 1.14021C240.468 1.22242 240.554 1.30771 240.636 1.39655C240.685 1.45014 240.733 1.50495 240.779 1.56122C240.858 1.65674 240.845 1.68812 240.955 1.62148C241.376 1.36554 241.865 1.24585 242.356 1.30627C242.648 1.34217 242.932 1.42983 243.202 1.5452C243.294 1.58448 243.506 1.74114 243.604 1.74267C243.701 1.74417 243.911 1.59894 244.011 1.56203C244.551 1.3626 245.134 1.31344 245.701 1.40559C246.287 1.50068 246.862 1.73437 247.359 2.0573C247.597 2.21264 247.806 2.38475 247.973 2.61573C248.045 2.71546 248.11 2.82095 248.192 2.91341C248.24 2.96756 248.335 3.02311 248.361 3.09163C248.345 3.0506 249.001 2.79772 249.063 2.78156C249.393 2.69543 249.729 2.71289 250.052 2.81916C250.659 3.01899 251.181 3.46712 251.61 3.92657C251.831 4.16256 252.024 4.42342 252.187 4.70134C252.266 4.83446 252.338 4.97139 252.403 5.11123C252.435 5.17897 252.456 5.26372 252.498 5.32475C252.552 5.40338 252.588 5.40488 252.686 5.43917C253.183 5.61327 253.636 5.90796 253.981 6.30615C254.33 6.70901 254.557 7.20511 254.652 7.72755C254.657 7.75832 254.661 7.88586 254.679 7.90251C254.703 7.92545 254.803 7.91531 254.841 7.91974C254.972 7.9351 255.102 7.95795 255.23 7.98832C255.467 8.04428 255.697 8.12664 255.914 8.23435C256.763 8.6542 257.37 9.44134 257.667 10.327C257.978 11.2566 257.973 12.3215 257.6 13.2336C257.54 13.3809 257.469 13.524 257.385 13.6592C257.333 13.7423 257.316 13.7425 257.35 13.8296C257.387 13.9266 257.455 14.0208 257.5 14.1155C257.645 14.4246 257.746 14.7524 257.81 15.0872C257.915 15.6364 257.967 16.2136 257.863 16.7671C257.815 17.024 257.731 17.2752 257.604 17.5041C257.539 17.6208 257.462 17.7315 257.376 17.8339C257.332 17.887 257.284 17.9378 257.235 17.9864C257.206 18.0142 257.169 18.0385 257.145 18.0696C257.086 18.1452 257.074 18.083 257.104 18.1941C257.147 18.3495 257.243 18.5027 257.302 18.6539C257.362 18.8097 257.417 18.9676 257.468 19.127C257.569 19.4499 257.655 19.7787 257.709 20.1131C257.812 20.7551 257.794 21.4392 257.49 22.0284C257.361 22.2805 257.174 22.5016 256.948 22.6736C256.838 22.7577 256.718 22.8302 256.592 22.8898C256.528 22.9204 256.445 22.9336 256.416 22.996C256.384 23.0632 256.431 23.1965 256.442 23.2716C256.535 23.9246 256.582 24.6102 256.388 25.2501C256.209 25.8395 255.816 26.3599 255.305 26.7044C254.313 27.3728 252.977 27.3351 251.935 26.8C251.663 26.6605 251.409 26.4874 251.183 26.2831C250.606 27.0599 249.418 27.0354 248.575 26.814C247.524 26.5383 246.681 25.8076 246.195 24.8476C245.531 25.6562 244.137 25.3939 243.676 24.5166C243.563 24.3019 243.497 24.0653 243.464 23.8259C243.446 23.6999 243.457 23.5729 243.444 23.448C243.428 23.2888 243.321 23.1342 243.26 22.9802C243.141 22.6805 243.067 22.3709 243.064 22.0477C243.063 21.8789 243.084 21.7145 243.1 21.547C243.114 21.3963 243.073 21.2559 243.049 21.1072C243.318 21.1516 243.647 21.0789 243.901 21.0007C244.15 20.9241 244.383 20.7221 244.559 20.5377C244.967 20.1094 245.217 19.5479 245.387 18.9891C245.762 17.7626 245.608 16.2911 244.375 15.618C243.8 15.3045 242.078 15.3055 241.394 15.4605C240.674 15.6234 239.858 17.2114 239.818 17.3607C239.793 17.4531 239.806 17.5674 239.721 17.629C239.534 17.7643 239.227 17.5294 239.089 17.4135C238.852 17.2135 238.683 16.9473 238.536 16.6774C238.216 16.0896 237.959 15.4592 237.777 14.8157C237.637 14.3196 237.547 13.808 237.364 13.3245C237.181 12.8434 236.893 12.4134 236.446 12.1409C235.96 11.8444 235.402 11.6883 234.868 11.5019C234.339 11.3173 233.818 11.0916 233.408 10.6998C233.318 10.6137 233.23 10.5221 233.158 10.4207C233.1 10.3406 233.044 10.1873 232.956 10.1365C232.82 10.0576 232.622 10.263 232.505 10.3375C231.925 10.7055 231.442 11.2187 231.052 11.7793C230.665 12.3369 230.346 12.8734 230.088 13.496C229.896 13.9577 229.777 14.5491 229.439 14.9275C229.289 15.0965 228.17 15.1987 227.807 15.0512C227.445 14.9037 227.038 14.5206 226.917 14.2806C226.792 14.0349 226.762 13.765 226.816 13.496C226.847 13.3377 226.911 13.1899 226.946 13.0345C226.975 12.9039 227.002 12.7805 227.066 12.6609C227.186 12.4342 227.392 12.2713 227.64 12.2032C227.382 11.9651 227.168 11.6803 227.02 11.3619C226.866 11.0311 226.735 10.6288 226.698 10.2657C226.668 9.97084 226.715 9.66531 226.876 9.41189C227.046 9.14604 227.346 8.97261 227.605 8.80678C227.209 8.49656 226.869 8.11929 226.59 7.70159C226.048 6.8893 225.712 5.8654 225.988 4.89699Z" fill="#191847"/>
<path fill-rule="evenodd" clip-rule="evenodd" d="M250.866 75.7985L229.77 131.622L214.982 172.766H206.551L226.877 75.7985L250.866 75.7985Z" fill="#1F28CF"/>
<path fill-rule="evenodd" clip-rule="evenodd" d="M256.08 75.7985C256.31 94.9526 256.144 120.74 256.678 121.934C257.034 122.73 268.114 131.8 289.917 149.142L285.571 156.532C259.686 139.839 246.082 130.381 244.758 128.157C242.773 124.821 232.8 94.1229 227.612 75.7985H256.08Z" fill="#2B44FF"/>
<path fill-rule="evenodd" clip-rule="evenodd" d="M297.563 154.115L290.222 148.528L284.299 155.587C283.844 160.908 282.082 166.876 279.014 173.49L280.358 174.618L291.076 161.846L294.07 156.912L294.742 157.476L297.563 154.115Z" fill="#191847"/>
<path fill-rule="evenodd" clip-rule="evenodd" d="M215.765 180.664L215.326 171.45H206.112C201.743 174.521 196.039 177.008 189 178.909V180.664H205.673L211.377 179.787V180.664H215.765Z" fill="#191847"/>
<path fill-rule="evenodd" clip-rule="evenodd" d="M213.676 70.2482L199.68 80.5258C195.884 81.5501 192.712 82.8245 190.166 84.3489C189.564 84.8971 188.837 86.0073 191.332 85.8155C193.827 85.6236 196.46 85.534 196.804 86.385C197.148 87.236 195.639 88.2538 196.335 89.402C196.798 90.1675 198.99 88.248 202.91 83.6436L216.77 77.8964L213.676 70.2482ZM267.413 70.6029L258.244 70.639C263.906 88.9153 266.962 98.6126 267.413 99.7309C268.428 102.247 266.28 106.079 265.361 108.138C268.354 109.477 268.035 104.518 271.81 106.275C275.255 107.878 277.876 110.782 281.857 108.326C282.346 108.024 282.883 106.887 281.587 105.998C278.359 103.785 273.706 99.9104 273.078 98.6351C272.22 96.8961 270.332 87.552 267.413 70.6029Z" fill="#B28B67"/>
<path fill-rule="evenodd" clip-rule="evenodd" d="M241.356 32.1283L237.562 31.4776C223.485 43.6382 217.703 67.0003 200.448 79.3761L204.601 84.5241C234.535 80.8178 241.955 52.3217 241.356 32.1283Z" fill="#E87613"/>
<path fill-rule="evenodd" clip-rule="evenodd" d="M257.895 79.8084C242.683 79.8084 231.492 79.8084 224.325 79.8084C222.791 79.8084 223.08 77.5934 223.301 76.4756C225.861 63.5757 235.851 49.6701 235.851 31.3073L245.534 29.7888C253.544 42.6704 256.314 58.5302 257.895 79.8084Z" fill="#DDE3E9"/>
<path fill-rule="evenodd" clip-rule="evenodd" d="M257.626 42.4508C259.032 42.0465 260.146 41.1036 260.967 39.6221C264.506 33.2358 263.228 29.7197 259.445 28.5639C255.663 27.4081 252.29 29.7888 246.264 29.7888C245.936 29.7888 245.636 29.8094 245.363 29.8505L242.332 30.0234C233.634 59.5001 231.235 79.1665 235.135 89.0225H261.558C263.124 92.673 264.622 95.7444 266.053 98.2367H273.252C273.93 76.3277 268.721 57.7324 257.626 42.4508Z" fill="#FF9B21"/>
<path fill-rule="evenodd" clip-rule="evenodd" d="M255.805 73.8839C254.974 80.8368 253.623 85.883 251.753 89.0225H261.558C259.732 84.7643 257.814 79.7181 255.805 73.8839H255.805Z" fill="black" fill-opacity="0.1"/>
<path fill-rule="evenodd" clip-rule="evenodd" d="M115.579 43.523C114.004 39.2937 113.582 34.66 115.507 30.3401C121.052 17.8933 137.81 27.1748 138.922 34.8803C140.034 42.5858 133.672 58.7888 128.782 58.3141C126.832 58.1248 123.444 55.617 120.427 51.8806L116.607 69.9266L102.282 64.7129L115.579 43.523Z" fill="#B28B67"/>
<path fill-rule="evenodd" clip-rule="evenodd" d="M137.241 29.4543C136.985 29.1391 136.448 28.4762 136.155 28.1999C136.086 28.1339 135.659 27.5131 135.642 27.5126C135.152 27.5011 133.691 27.5847 133.412 28.0148C133.382 28.0442 133.353 28.0716 133.327 28.0949C133.029 28.3552 132.744 28.6289 132.464 28.9094C131.85 29.5253 131.272 30.1917 130.709 30.8569C129.612 32.1524 128.575 33.5091 127.575 34.8834C126.558 36.2824 125.601 37.7243 124.604 39.1379C123.168 41.1719 121.581 43.0881 120.15 45.1228C119.236 46.4219 118.489 47.8009 118.052 49.3211C118.046 49.3393 118.04 49.3571 118.035 49.3758C118.033 49.3834 118.031 49.3911 118.029 49.3987C117.964 49.633 117.905 49.8706 117.855 50.1118C117.813 50.3183 117.77 50.5256 117.729 50.7335C118.69 49.8258 119.561 48.757 120.435 47.7599C120.52 47.6623 120.604 47.5631 120.687 47.4632C120.918 47.2807 121.151 47.1008 121.386 46.9225C122.867 45.7979 124.349 44.68 125.8 43.5147C128.411 41.4188 131.026 39.2606 133.859 37.4947C134.696 36.9732 135.542 36.4677 136.373 35.9377C136.847 35.636 137.314 35.3244 137.774 35.0014C138.103 34.7705 139.436 34.0334 139.331 33.261C139.278 32.8659 137.908 30.2722 137.241 29.4543Z" fill="#2C2C2C"/>
<path fill-rule="evenodd" clip-rule="evenodd" d="M136.239 28.2917C136.519 28.5151 136.606 27.7946 136.382 27.4485C135.344 25.8449 130.013 23.4597 124.889 22.7148C121.457 22.2158 117.146 22.5137 113.826 23.7057C110.832 24.7802 108.137 27.2682 106.247 29.9316C104.261 32.7283 102.953 35.921 102.269 39.2808C102.119 40.0188 102.101 40.7677 101.976 41.4983C101.836 42.3212 101.638 43.0903 101.616 43.9324C101.603 44.448 101.701 44.9937 101.664 45.5036C101.622 46.0856 101.353 46.5402 101.048 47.0368C100.552 47.8463 100.013 48.6384 99.3957 49.3591C98.468 50.4414 97.4686 51.4076 96.6365 52.5782C95.5292 54.1358 91.4829 59.0433 92.3825 61.1097L120.147 71.2153C120.142 69.0538 118.861 66.0455 119.179 63.8493C119.366 62.5556 120.203 59.8859 120.212 59.781C121.156 55.2402 120.684 52.7358 120.191 51.7099C119.698 50.6839 118.762 50.0831 118.946 49.4156C119.705 46.655 121.706 44.4737 123.399 42.2555C125.417 39.6119 127.212 36.8036 129.255 34.1806C130.16 33.019 134.785 27.132 136.239 28.2917Z" fill="#8991DC"/>
<path fill-rule="evenodd" clip-rule="evenodd" d="M125.381 27.8336C123.125 30.7746 122.255 32.466 120.828 37.087L120.314 36.9001C120.914 32.2673 123.236 28.5456 124.736 27.5987L125.381 27.8336ZM108.215 31.2946C108.443 36.739 108.315 39.8585 112.369 45.6726L111.841 45.8141C107.548 40.7801 107.304 36.5503 107.733 31.3424L108.215 31.2946ZM117.985 29.3946C116.425 36.4369 115.287 40.3695 117.228 49.4003L116.682 49.3717C114.26 41.2423 115.409 35.7445 117.513 29.2646L117.985 29.3946ZM105.62 47.4997L106.226 47.1418C111.307 51.0249 109.318 54.5005 115.174 60.8845L114.437 61.0305C109.063 56.1188 109.622 49.983 105.62 47.4997Z" fill="black" fill-opacity="0.2"/>
<path fill-rule="evenodd" clip-rule="evenodd" d="M82.7731 120.646L129.97 199.55L165.353 266.256H172.975L113.689 120.646L82.7731 120.646Z" fill="#997659"/>
<path fill-rule="evenodd" clip-rule="evenodd" d="M160.693 263.177C159.983 265.074 159.627 266.493 159.627 267.435C159.627 268.58 159.818 270.251 160.2 272.449C161.528 272.449 173.47 272.449 196.024 272.449C196.955 269.371 196.417 267.71 194.412 267.464C192.406 267.219 190.74 266.997 189.413 266.799L172.762 259.376C172.442 259.234 172.067 259.378 171.924 259.698C171.921 259.703 171.919 259.709 171.917 259.715L170.846 262.311C168.99 263.177 167.481 263.61 166.32 263.61C165.377 263.61 164.074 263.229 162.412 262.468L162.412 262.468C161.774 262.175 161.02 262.455 160.728 263.093C160.715 263.12 160.704 263.148 160.693 263.177Z" fill="#E4E4E4"/>
<path fill-rule="evenodd" clip-rule="evenodd" d="M155.526 255.574L170.224 251.128C163.784 231.878 155.892 210.694 146.547 187.575C137.201 164.457 127.164 142.147 116.437 120.646H74.9252C86.8522 147.844 99.4966 172.557 112.858 194.785C126.22 217.013 140.442 237.276 155.526 255.574Z" fill="#DB2721"/>
<path fill-rule="evenodd" clip-rule="evenodd" d="M79.6714 120.646C75.217 148.373 66.6256 183.798 65.8148 184.891C65.2742 185.62 45.8149 192.141 7.43687 204.453L9.08317 211.174C54.8489 204.57 78.9636 199.447 81.4271 195.805C85.1224 190.34 103.574 147.172 110.72 120.646H79.6714Z" fill="#B28B67"/>
<path fill-rule="evenodd" clip-rule="evenodd" d="M20.9274 198.644L23.8272 209.468C58.0573 212.47 79.0308 210.301 86.7478 202.96C94.4648 195.619 103.26 168.181 113.133 120.646H73.5494C67.294 159.571 63.7969 179.85 63.0579 181.484C62.3189 183.118 48.2754 188.838 20.9274 198.644Z" fill="#FF4133"/>
<path fill-rule="evenodd" clip-rule="evenodd" d="M9.31632 201.653C7.32486 201.283 5.86541 201.179 4.93798 201.343C3.81001 201.542 2.19715 202.02 0.0994037 202.777C0.330132 204.086 2.40373 215.846 6.3202 238.057C9.51275 238.44 11.0557 237.622 10.9491 235.604C10.8425 233.586 10.7714 231.907 10.7357 230.566L15.1546 212.879C15.2396 212.539 15.0326 212.194 14.6923 212.109C14.6865 212.108 14.6806 212.106 14.6748 212.105L11.9321 211.502C10.7565 209.824 10.0679 208.413 9.86633 207.27C9.70255 206.341 9.8515 204.992 10.3132 203.223L10.3132 203.223C10.4904 202.544 10.0837 201.85 9.40483 201.673C9.37558 201.665 9.34605 201.659 9.31632 201.653Z" fill="#E4E4E4"/>
<path fill-rule="evenodd" clip-rule="evenodd" d="M137.924 120.636L152.325 141.24C157.059 144.427 160.817 147.66 163.6 150.939C164.169 151.969 164.647 153.824 161.309 152.385C157.971 150.946 154.396 149.58 153.523 150.577C152.65 151.573 154.247 153.672 152.751 154.907C151.754 155.73 149.644 152.082 146.422 143.961L130.081 129.59L137.924 120.636ZM55.5706 91.3235L66.0555 95.816C47.6015 117.862 37.7571 129.498 36.5222 130.725C33.7436 133.486 34.4546 139.781 34.5213 143.031C29.7622 143.112 32.9881 136.719 26.9468 136.911C21.4326 137.085 16.2867 139.452 12.3479 133.943C11.8636 133.265 11.788 131.455 14.0231 131.01C19.5915 129.903 28.0021 127.401 29.5629 126.067C31.6913 124.247 40.3605 112.666 55.5706 91.3235Z" fill="#B28B67"/>
<path fill-rule="evenodd" clip-rule="evenodd" d="M112.963 59.4569L120.314 59.0519C123.397 84.2126 131.182 109.843 149.052 134.519L140.815 142.668C123.882 125.564 107.319 111.364 104.322 91.7049C103.316 85.1066 110.86 66.4607 112.963 59.4569Z" fill="#C5CFD6"/>
<path fill-rule="evenodd" clip-rule="evenodd" d="M72.6313 117.137C91.4436 124.359 106.68 128.441 118.341 129.385C119.786 129.502 120.615 127.274 120.392 125.551C116.921 98.7251 115.75 75.8157 120.247 59.0338C118.178 59.457 114.947 58.738 110.556 56.8767C93.6605 70.8855 82.7073 89.2185 72.6313 117.137Z" fill="#323337"/>
<path fill-rule="evenodd" clip-rule="evenodd" d="M107.896 54.6104L113.006 55.9796C112.337 63.2366 90.9148 158.196 94.2646 192.034L31.5799 175.238C40.483 147.447 60.2656 116.498 78.7087 91.106C66.7716 97.2455 54.4466 109.766 41.7335 128.666L30.7927 122.532C49.5172 87.5718 74.8123 64.9663 106.678 54.7153C106.773 54.5963 106.868 54.4778 106.962 54.36L107.414 54.4812C107.609 54.4198 107.804 54.359 107.999 54.2986L107.896 54.6104Z" fill="#DDE3E9"/>
</svg>
