<svg width="19" height="14" viewBox="0 0 19 14" fill="none" xmlns="http://www.w3.org/2000/svg">
<path d="M12.0056 7.00002C12.0056 7.682 11.7347 8.33606 11.2525 8.81829C10.7702 9.30053 10.1162 9.57145 9.43419 9.57145C8.75221 9.57145 8.09815 9.30053 7.61592 8.81829C7.13368 8.33606 6.86276 7.682 6.86276 7.00002C6.86276 6.31803 7.13368 5.66398 7.61592 5.18174C8.09815 4.69951 8.75221 4.42859 9.43419 4.42859C10.1162 4.42859 10.7702 4.69951 11.2525 5.18174C11.7347 5.66398 12.0056 6.31803 12.0056 7.00002V7.00002Z" stroke="#2451C7" stroke-width="2" stroke-linecap="round" stroke-linejoin="round"/>
<path d="M1.25534 7C2.34734 3.52257 5.59677 1 9.4342 1C13.2725 1 16.5211 3.52257 17.6131 7C16.5211 10.4774 13.2725 13 9.4342 13C5.59677 13 2.34734 10.4774 1.25534 7V7Z" stroke="#2451C7" stroke-width="2" stroke-linecap="round" stroke-linejoin="round"/>
</svg>
