<svg width="16" height="16" viewBox="0 0 16 16" fill="none" xmlns="http://www.w3.org/2000/svg">
<path fill-rule="evenodd" clip-rule="evenodd" d="M8 16C10.1217 16 12.1566 15.1571 13.6569 13.6569C15.1571 12.1566 16 10.1217 16 8C16 5.87827 15.1571 3.84344 13.6569 2.34315C12.1566 0.842855 10.1217 0 8 0C5.87827 0 3.84344 0.842855 2.34315 2.34315C0.842855 3.84344 0 5.87827 0 8C0 10.1217 0.842855 12.1566 2.34315 13.6569C3.84344 15.1571 5.87827 16 8 16ZM7.555 5.168C7.4044 5.06752 7.22935 5.00981 7.04852 5.00103C6.86769 4.99224 6.68786 5.03272 6.52823 5.11813C6.3686 5.20354 6.23516 5.33068 6.14213 5.48599C6.04909 5.6413 5.99997 5.81896 6 6V10C5.99997 10.181 6.04909 10.3587 6.14213 10.514C6.23516 10.6693 6.3686 10.7965 6.52823 10.8819C6.68786 10.9673 6.86769 11.0078 7.04852 10.999C7.22935 10.9902 7.4044 10.9325 7.555 10.832L10.555 8.832C10.692 8.74068 10.8043 8.61696 10.8819 8.47182C10.9596 8.32668 11.0002 8.16461 11.0002 8C11.0002 7.83539 10.9596 7.67332 10.8819 7.52818C10.8043 7.38304 10.692 7.25932 10.555 7.168L7.555 5.168Z" fill="#D11616"/>
</svg>
