<svg width="15" height="16" viewBox="0 0 15 16" fill="none" xmlns="http://www.w3.org/2000/svg">
<path d="M6.48257 1.57051C6.78257 0.649511 8.08557 0.649511 8.38457 1.57051L9.45457 4.86251C9.51994 5.063 9.64702 5.23769 9.81764 5.36162C9.98826 5.48554 10.1937 5.55236 10.4046 5.55251H13.8666C14.8356 5.55251 15.2376 6.79251 14.4546 7.36251L11.6546 9.39651C11.4836 9.52054 11.3563 9.69552 11.2909 9.89636C11.2255 10.0972 11.2254 10.3136 11.2906 10.5145L12.3606 13.8065C12.6606 14.7275 11.6056 15.4945 10.8206 14.9245L8.02057 12.8905C7.84977 12.7665 7.64413 12.6997 7.43307 12.6997C7.22201 12.6997 7.01636 12.7665 6.84557 12.8905L4.04557 14.9245C3.26157 15.4945 2.20757 14.7275 2.50657 13.8065L3.57657 10.5145C3.64174 10.3136 3.64163 10.0972 3.57623 9.89636C3.51084 9.69552 3.38354 9.52054 3.21257 9.39651L0.413568 7.36351C-0.369432 6.79351 0.033568 5.55351 1.00157 5.55351H4.46257C4.67362 5.55357 4.87927 5.48685 5.05009 5.36291C5.22091 5.23897 5.34814 5.06416 5.41357 4.86351L6.48357 1.57151L6.48257 1.57051Z" fill="#F19F00"/>
</svg>
